<?xml version="1.0" standalone="no"?>
<!DOCTYPE svg PUBLIC "-//W3C//DTD SVG 20010904//EN"
 "http://www.w3.org/TR/2001/REC-SVG-20010904/DTD/svg10.dtd">
<svg version="1.0" xmlns="http://www.w3.org/2000/svg"
 width="1280.000000pt" height="1269.000000pt" viewBox="0 0 1280.000000 1269.000000"
 preserveAspectRatio="xMidYMid meet">
<metadata>
Created by potrace 1.15, written by Peter Selinger 2001-2017
</metadata>
<g transform="translate(0.000000,1269.000000) scale(0.100000,-0.100000)"
fill="#000000" stroke="none">
<path d="M5674 12680 c-75 -17 -158 -94 -549 -505 -183 -192 -376 -393 -429
-445 l-96 -95 -63 35 c-72 39 -547 320 -1052 622 -404 242 -554 319 -620 320
-60 1 -173 -55 -198 -98 -30 -53 -39 -187 -27 -394 10 -164 46 -639 96 -1273
l16 -209 -56 -83 c-69 -101 -205 -250 -559 -612 -146 -149 -290 -305 -320
-345 -30 -41 -89 -142 -131 -226 l-76 -152 0 -422 c0 -467 -9 -626 -40 -738
-52 -183 -178 -454 -335 -715 -43 -71 -193 -308 -335 -525 -313 -482 -441
-693 -564 -932 -369 -716 -431 -1279 -195 -1786 176 -380 507 -677 909 -817
58 -20 169 -49 247 -64 78 -15 153 -35 165 -43 13 -9 44 -53 68 -99 65 -122
143 -198 263 -255 106 -50 227 -84 296 -84 136 0 376 100 546 226 135 101 268
240 356 374 94 143 132 211 303 527 75 139 162 296 193 348 196 322 389 525
683 720 171 114 339 208 785 440 405 211 658 349 850 465 138 84 272 160 280
160 15 0 -3 -482 -26 -690 -44 -402 -144 -742 -328 -1107 -214 -428 -319 -559
-1011 -1258 -590 -596 -740 -764 -896 -996 -226 -339 -365 -775 -390 -1224
-11 -205 22 -435 81 -559 31 -66 92 -131 131 -140 104 -22 1303 -28 5058 -22
l3970 5 43 43 c79 78 78 68 77 618 -1 585 -19 959 -75 1565 -194 2110 -762
4526 -1391 5915 -228 504 -528 1012 -794 1343 -233 292 -626 681 -879 873
-417 316 -977 576 -1544 718 -292 73 -546 103 -956 113 -206 4 -275 2 -390
-12 -77 -10 -151 -19 -164 -19 -21 -1 -32 17 -103 174 -516 1136 -594 1287
-691 1333 -37 18 -80 20 -133 7z"/>
</g>
</svg>
