<?xml version="1.0" standalone="no"?>
<!DOCTYPE svg PUBLIC "-//W3C//DTD SVG 20010904//EN"
 "http://www.w3.org/TR/2001/REC-SVG-20010904/DTD/svg10.dtd">
<svg version="1.0" xmlns="http://www.w3.org/2000/svg"
 width="930.000000pt" height="1280.000000pt" viewBox="0 0 930.000000 1280.000000"
 preserveAspectRatio="xMidYMid meet">
<metadata>
Created by potrace 1.15, written by Peter Selinger 2001-2017
</metadata>
<g transform="translate(0.000000,1280.000000) scale(0.100000,-0.100000)"
fill="#000000" stroke="none">
<path d="M4440 12794 c-19 -2 -84 -9 -145 -15 -886 -89 -1731 -584 -2261
-1324 -638 -891 -778 -2060 -368 -3068 166 -407 392 -746 714 -1068 168 -169
311 -286 498 -407 l133 -87 -5 -210 c-15 -555 -76 -1141 -166 -1585 -153 -758
-402 -1206 -764 -1380 -142 -67 -263 -100 -581 -155 -358 -62 -521 -108 -686
-191 -472 -236 -711 -668 -784 -1414 -22 -220 -34 -1471 -15 -1550 38 -165
152 -283 313 -326 44 -12 731 -14 4327 -14 2845 0 4290 4 4319 11 158 36 283
164 321 329 19 82 7 1320 -15 1550 -64 655 -259 1068 -626 1323 -132 92 -323
172 -519 218 -47 11 -195 40 -330 64 -135 25 -290 56 -345 71 -243 63 -414
168 -551 338 -356 441 -553 1289 -614 2631 -5 121 -10 235 -10 252 0 29 7 37
61 70 33 21 113 76 177 122 851 612 1342 1566 1342 2606 0 732 -246 1433 -705
2010 -116 145 -381 408 -525 519 -474 366 -981 577 -1585 661 -104 15 -528 28
-605 19z"/>
</g>
</svg>
